<svg xmlns="http://www.w3.org/2000/svg" width="34.846" height="25.539" viewBox="0 0 34.846 25.539"><defs><style>.a{fill:#6a6a6a;}.b{fill:#333;}.c{fill:#f29f05;}.d{fill:#d08700;}.e{fill:#ffe365;}.f{fill:#ffc733;}</style></defs><g transform="translate(0 -68.373)"><path class="a" d="M231.362,75.3H220.5a1.137,1.137,0,0,1-1.091-1.454l1.356-4.653a1.136,1.136,0,0,1,1.091-.818h8.145a1.136,1.136,0,0,1,1.091.818l1.356,4.653A1.137,1.137,0,0,1,231.362,75.3Z" transform="translate(-204.438)"/><path class="b" d="M322.36,73.845,321,69.191a1.136,1.136,0,0,0-1.091-.818H315.84V75.3h5.429A1.137,1.137,0,0,0,322.36,73.845Z" transform="translate(-294.345 0)"/><path class="a" d="M52.922,96.538h-6.2A1.136,1.136,0,0,1,45.581,95.4V92.3a1.136,1.136,0,0,1,1.136-1.136h6.2A1.136,1.136,0,0,1,54.058,92.3v3.1A1.136,1.136,0,0,1,52.922,96.538Z" transform="translate(-42.479 -21.239)"/><path class="c" d="M33.709,157.632H1.136A1.136,1.136,0,0,1,0,156.5V137.882a1.136,1.136,0,0,1,1.136-1.136H33.71a1.136,1.136,0,0,1,1.136,1.136V156.5A1.136,1.136,0,0,1,33.709,157.632Z" transform="translate(0 -63.72)"/><path class="d" d="M328.055,136.746H315.841v20.886h12.214a1.136,1.136,0,0,0,1.136-1.136V137.882A1.136,1.136,0,0,0,328.055,136.746Z" transform="translate(-294.346 -63.72)"/><path class="e" d="M236.563,216.7a5.79,5.79,0,1,1,5.79-5.79A5.8,5.8,0,0,1,236.563,216.7Z" transform="translate(-215.067 -127.438)"/><g transform="translate(4.609 83.913)"><path class="a" d="M72.046,298.984H68.855a1.136,1.136,0,1,1,0-2.273h3.191a1.136,1.136,0,0,1,0,2.273Z" transform="translate(-67.719 -296.711)"/><path class="a" d="M72.046,348.694H68.855a1.136,1.136,0,1,1,0-2.273h3.191a1.136,1.136,0,0,1,0,2.273Z" transform="translate(-67.719 -343.038)"/></g><path class="f" d="M321.63,210.909a5.8,5.8,0,0,0-5.79-5.79V216.7A5.8,5.8,0,0,0,321.63,210.909Z" transform="translate(-294.345 -127.439)"/></g></svg>